<?xml version="1.0" standalone="no"?>
<!DOCTYPE svg PUBLIC "-//W3C//DTD SVG 20010904//EN" "http://www.w3.org/TR/2001/REC-SVG-20010904/DTD/svg10.dtd">
<svg version="1.0" xmlns="http://www.w3.org/2000/svg"
    width="1289.000000pt" height="832.000000pt" viewBox="0 0 1289.000000 832.000000"
    preserveAspectRatio="xMidYMid meet">
    <metadata> Created by potrace 1.16, written by Peter Selinger 2001-2019 </metadata>
    <g transform="translate(0.000000,832.000000) scale(0.100000,-0.100000)"
        fill="#000000" stroke="none">
        <path
            d="M6490 7093 c-172 -104 -504 -246 -805 -343 -399 -129 -905 -232
-1365 -280 -58 -6 -118 -13 -135 -15 l-30 -5 1 -1043 c0 -574 4 -1090 8 -1147
27 -414 129 -833 302 -1238 119 -278 275 -548 496 -860 462 -649 925 -1090
1510 -1437 l97 -57 85 46 c423 231 900 647 1272 1111 633 789 943 1470 1041
2290 16 135 18 257 18 1245 l0 1095 -80 7 c-748 68 -1489 257 -2035 519 -80
39 -179 90 -221 115 -42 24 -78 44 -80 43 -2 0 -38 -21 -79 -46z m239 -1133
c905 -80 1607 -813 1647 -1720 30 -653 -265 -1238 -805 -1601 -682 -459 -1579
-397 -2201 153 -317 281 -513 638 -587 1073 -25 149 -22 453 5 605 78 431 288
793 617 1068 382 319 839 465 1324 422z" />
        <path
            d="M6429 5789 c-319 -26 -627 -151 -882 -357 l-67 -54 31 -37 c17 -20
263 -269 547 -554 l516 -517 300 302 c165 167 412 416 548 554 l249 250 -65
52 c-157 126 -331 221 -515 282 -142 47 -235 67 -382 80 -125 11 -140 11 -280
-1z m806 -261 c-71 -136 -112 -294 -122 -470 -5 -82 -3 -111 7 -124 12 -14 3
-26 -76 -100 l-89 -85 -3 46 c-2 30 2 55 13 71 15 23 14 27 -23 82 -50 73
-186 203 -278 265 -39 27 -109 64 -155 84 -52 21 -70 32 -49 29 124 -22 361
-191 475 -340 33 -43 55 -63 65 -59 8 3 32 7 53 10 l37 6 0 72 c0 182 74 444
162 568 34 47 28 30 -17 -55z" />
        <path
            d="M7246 4700 l-548 -552 143 -146 c79 -80 325 -328 545 -550 l402 -404
53 63 c325 391 444 931 319 1455 -23 98 -72 229 -125 334 -40 79 -153 249
-208 313 l-33 38 -548 -551z m128 -111 c31 -39 56 -75 56 -81 0 -5 13 0 28 11
66 47 89 40 228 -65 l87 -65 114 -8 c62 -4 116 -11 120 -15 5 -5 -53 -6 -127
-4 l-136 3 -97 68 -98 67 -37 -27 c-20 -15 -38 -28 -40 -29 -1 0 11 -31 27
-67 16 -36 37 -91 47 -121 l18 -56 77 0 c94 0 123 -10 143 -49 16 -30 40 -196
52 -365 l7 -99 83 -123 c83 -121 98 -148 68 -123 -21 17 -158 206 -177 244
-17 35 -33 126 -47 280 -16 167 -6 153 -97 143 -42 -5 -78 -9 -79 -11 -1 -1 7
-47 18 -102 25 -121 30 -349 10 -407 -15 -42 -64 -88 -93 -88 -33 0 -76 28
-106 67 -27 36 -28 39 -23 132 13 248 -3 445 -50 603 -23 78 -23 72 -5 -77 18
-142 19 -348 4 -483 -6 -53 -12 -103 -12 -109 0 -7 -4 -13 -8 -13 -16 0 -170
173 -204 230 -32 53 -40 60 -65 58 -19 -1 -38 6 -55 22 -25 23 -33 50 -16 50
4 0 20 9 34 20 l26 21 -24 62 c-13 35 -29 91 -36 125 -10 48 -17 62 -34 66
-17 4 7 34 165 196 102 104 188 190 192 190 4 0 32 -32 62 -71z" />
        <path
            d="M5305 5198 c-71 -83 -158 -221 -215 -341 -89 -185 -134 -360 -149
-576 -31 -431 96 -846 357 -1164 l55 -68 544 543 c299 298 543 547 543 551 0
10 -1081 1097 -1091 1097 -4 0 -24 -19 -44 -42z m205 -297 c4 -9 11 -53 15
-99 l7 -83 48 -24 c68 -34 101 -85 65 -99 -19 -7 -122 59 -136 87 -1 1 -6 49
-13 107 l-11 104 -42 31 c-23 16 -42 34 -42 38 -1 13 99 -45 109 -62z m273
-273 c-67 -7 -80 -5 -90 9 -18 24 -16 94 3 122 l17 23 74 -74 74 -73 -78 -7z
m220 -137 c87 -85 87 -86 60 -92 -54 -13 -281 -9 -356 5 -75 15 -130 36 -142
56 -9 15 46 64 101 90 53 24 149 40 209 32 34 -4 53 -17 128 -91z m-514 13
c36 -7 38 -19 10 -53 -17 -21 -23 -23 -40 -13 -10 7 -24 12 -30 12 -7 0 -56
-44 -110 -97 l-99 -97 -62 -3 c-68 -4 -64 9 6 22 34 6 56 24 149 121 60 63
117 114 127 114 9 0 32 -3 49 -6z m157 -133 c86 -23 241 -32 366 -21 l122 10
68 -67 c80 -79 84 -74 -81 -94 -192 -23 -417 -12 -583 27 -63 15 -68 18 -68
43 0 14 13 54 30 89 l29 63 38 -20 c21 -10 56 -24 79 -30z m-239 -201 c-9 -32
-16 -40 -33 -40 -13 0 -26 -5 -30 -11 -3 -6 -6 -100 -5 -210 2 -217 -1 -229
-58 -283 -39 -38 -40 -22 -1 25 l29 36 -11 169 c-14 216 -7 277 37 321 19 19
43 33 58 33 23 0 24 -1 14 -40z m153 5 c173 -39 438 -42 652 -9 93 15 98 14
116 -4 19 -19 19 -20 -34 -75 -51 -53 -56 -56 -121 -63 -129 -16 -519 -10
-623 9 -52 10 -98 21 -103 26 -4 4 -5 38 -1 75 6 63 8 67 28 61 12 -3 50 -12
86 -20z m55 -191 c95 -13 168 -15 348 -11 l228 5 -65 -66 -66 -67 -132 -4
c-130 -3 -377 12 -434 28 -29 7 -29 7 -48 110 -6 32 -5 33 22 28 15 -4 81 -14
147 -23z m197 -178 c109 0 198 -4 198 -8 0 -3 -30 -34 -67 -68 l-68 -62 -150
7 c-82 4 -157 11 -167 16 -18 10 -81 123 -73 131 3 3 33 0 68 -5 34 -5 151
-10 259 -11z" />
        <path
            d="M6025 3469 l-540 -540 49 -45 c166 -152 455 -293 709 -345 190 -38
479 -40 652 -4 251 52 550 196 718 347 l48 43 -540 540 c-296 297 -543 541
-548 542 -4 2 -251 -240 -548 -538z" />
    </g>
</svg>