<?xml version="1.0" standalone="no"?>
<!DOCTYPE svg PUBLIC "-//W3C//DTD SVG 20010904//EN" "http://www.w3.org/TR/2001/REC-SVG-20010904/DTD/svg10.dtd">
<svg version="1.0" xmlns="http://www.w3.org/2000/svg"
    width="340pt" height="340pt" viewBox="300 300 300 300"
    preserveAspectRatio="xMidYMid meet">

    <g transform="translate(0.000000,1024.000000) scale(0.100000,-0.100000)"
        fill="#0066FF" stroke="none">
        <path
            fill="white"
            d="M4125 6713 c-267 -138 -623 -241 -930 -268 -44 -4 -90 -11 -102 -16
       l-23 -9 0 -474 c0 -284 4 -506 11 -553 51 -369 279 -692 674 -953 126 -83 436
       -240 475 -240 48 0 367 174 532 290 109 76 304 267 371 362 96 137 160 278
       200 438 19 79 21 121 24 612 l4 527 -43 5 c-466 63 -644 111 -972 265 -60 28
       -118 51 -130 51 -12 -1 -52 -17 -91 -37z"
        />
        <path
            d="M4125 6713 c-267 -138 -623 -241 -930 -268 -44 -4 -90 -11 -102 -16
l-23 -9 0 -474 c0 -284 4 -506 11 -553 51 -369 279 -692 674 -953 126 -83 436
-240 475 -240 48 0 367 174 532 290 109 76 304 267 371 362 96 137 160 278
200 438 19 79 21 121 24 612 l4 527 -43 5 c-466 63 -644 111 -972 265 -60 28
-118 51 -130 51 -12 -1 -52 -17 -91 -37z m427 -258 c213 -73 405 -118 601
-141 l57 -6 0 -433 c0 -344 -3 -449 -15 -512 -77 -408 -360 -710 -921 -987
l-50 -24 -142 68 c-222 107 -380 219 -533 376 -192 199 -288 380 -318 607 -6
45 -11 256 -11 491 l0 413 73 7 c112 11 331 54 447 87 120 34 324 114 420 163
l65 34 97 -49 c54 -27 157 -69 230 -94z" />

        <path
            d="M4172 5954 c-81 -82 -123 -159 -154 -289 -12 -49 -22 -91 -23 -93 -1
-1 -25 13 -53 32 -57 38 -150 76 -187 76 -34 0 -52 -23 -66 -84 -27 -123 5
-288 75 -379 30 -39 101 -100 126 -109 7 -2 -5 -37 -31 -91 -46 -96 -45 -109
7 -172 29 -36 24 -42 100 108 l51 100 139 2 c128 1 144 3 209 29 92 38 164 92
205 156 55 85 75 215 48 315 l-12 45 56 58 c82 83 138 211 138 314 l0 38 -57
0 c-120 0 -235 -43 -346 -127 -33 -24 -61 -42 -64 -39 -3 3 -16 35 -29 72 -13
38 -32 77 -43 88 -20 19 -20 19 -89 -50z m434 -122 c-20 -39 -117 -136 -191
-192 -33 -24 -106 -82 -162 -127 -56 -46 -109 -83 -117 -83 -39 0 2 251 54
334 18 28 18 29 29 8 6 -12 21 -51 32 -87 11 -36 23 -65 27 -65 5 0 24 16 43
36 76 80 282 225 297 210 2 -2 -3 -17 -12 -34z m-656 -393 c20 -21 47 -57 60
-81 l22 -43 -23 -37 c-13 -20 -27 -37 -32 -38 -17 -1 -101 88 -122 130 -24 47
-45 136 -37 158 5 15 80 -36 132 -89z m530 28 c0 -137 -120 -246 -290 -264
-32 -3 -66 -3 -74 0 -14 6 -13 10 6 32 55 63 324 282 351 284 4 1 7 -23 7 -52z" />


    </g>
</svg>