<?xml version="1.0" standalone="no"?>
<!DOCTYPE svg PUBLIC "-//W3C//DTD SVG 20010904//EN"
 "http://www.w3.org/TR/2001/REC-SVG-20010904/DTD/svg10.dtd">
<svg version="1.0" xmlns="http://www.w3.org/2000/svg"
 width="1536.000000pt" height="1024.000000pt" viewBox="0 0 1536.000000 1024.000000"
 preserveAspectRatio="xMidYMid meet">
<metadata>
Created by potrace 1.16, written by Peter Selinger 2001-2019
</metadata>
<g transform="translate(0.000000,1024.000000) scale(0.100000,-0.100000)"
fill="#000000" stroke="none">
<path d="M6157 8708 c-66 -108 -158 -280 -323 -603 -47 -93 -96 -181 -109
-195 -36 -41 -65 -87 -65 -104 0 -9 11 -21 24 -27 20 -10 31 -8 60 11 39 24
44 44 20 78 -14 21 -14 26 1 65 24 60 315 620 362 697 39 65 56 100 48 100 -3
0 -11 -10 -18 -22z"/>
<path d="M7670 7673 c-267 -9 -469 -43 -562 -96 -162 -91 -538 -486 -750 -787
-85 -120 -128 -231 -128 -325 0 -49 -5 -59 -84 -173 -46 -67 -94 -139 -107
-161 l-22 -40 -40 32 c-63 52 -96 73 -48 31 25 -22 53 -46 64 -54 14 -12 20
-37 27 -116 11 -124 17 -151 38 -160 10 -4 67 -9 128 -12 l112 -4 6 -42 c20
-129 26 -194 31 -352 3 -96 10 -184 15 -197 8 -18 9 -16 5 13 -2 19 -7 114
-10 210 -6 156 -10 206 -32 341 l-5 36 113 2 c127 2 168 7 218 28 31 13 35 13
44 -2 8 -15 26 -16 160 -10 187 7 373 32 410 53 21 13 27 25 29 52 l1 35 4
-34 4 -33 52 6 c191 24 401 77 493 124 97 50 178 152 217 277 23 72 53 241 69
380 18 162 18 610 0 688 -17 72 -58 122 -115 139 -66 20 -507 16 -623 -5 -213
-40 -287 -80 -462 -250 -164 -160 -464 -526 -618 -752 -32 -47 -60 -82 -62
-76 -10 31 21 153 57 226 70 140 358 493 569 696 180 175 249 222 368 253 82
21 298 45 426 47 59 1 105 5 102 10 -3 5 -8 8 -12 7 -4 -1 -41 -3 -82 -5z
m-441 -1380 c7 -60 14 -131 17 -159 l6 -51 -76 11 c-43 6 -82 18 -91 27 -22
22 -42 212 -26 252 10 26 13 27 84 27 l74 0 12 -107z"/>
<path d="M6315 7593 c-173 -6 -510 -25 -610 -33 -60 -5 -171 -14 -245 -20
-562 -44 -1120 -136 -1255 -208 -101 -54 -467 -385 -699 -633 -108 -116 -123
-132 -283 -314 -77 -88 -148 -166 -157 -174 -19 -16 -22 -36 -3 -25 37 22
-101 -123 -144 -151 -30 -19 -36 -29 -37 -60 -1 -33 2 -38 36 -52 32 -14 81
-15 377 -10 338 7 790 27 1020 47 383 34 799 84 951 115 74 14 219 72 295 117
108 64 290 246 594 593 76 88 211 241 300 340 336 377 386 440 370 465 -6 9
-311 11 -510 3z m-2044 -301 c-13 -24 -155 -167 -221 -222 -101 -85 -173 -155
-244 -240 -39 -47 -105 -119 -146 -160 -156 -155 -280 -304 -280 -335 0 -7 -5
-15 -12 -17 -6 -2 -8 -10 -4 -16 4 -7 16 -10 27 -7 14 5 19 2 19 -14 0 -11 4
-22 9 -25 10 -6 65 20 89 42 18 16 23 15 15 -4 -6 -15 -4 -15 19 0 13 9 28 13
33 9 4 -5 5 -3 2 3 -6 11 29 57 101 133 17 19 47 54 65 77 17 24 36 44 40 44
5 0 -7 -19 -26 -42 -18 -24 -60 -81 -92 -128 -31 -47 -67 -96 -79 -109 -25
-28 -82 -65 -116 -76 -14 -4 -28 -12 -31 -17 -3 -5 -37 5 -75 21 -38 16 -85
32 -104 36 -50 10 -52 13 -35 45 9 17 15 33 15 37 0 5 18 30 41 56 22 27 39
51 35 54 -3 3 4 19 15 35 12 16 24 27 27 24 3 -4 -5 -17 -18 -31 -13 -14 -21
-25 -18 -25 3 0 71 71 150 158 197 214 371 390 503 508 189 170 236 204 283
204 19 0 21 -3 13 -18z m1045 -59 c-17 -60 -46 -187 -111 -489 -40 -189 -76
-348 -80 -354 -8 -13 -60 -10 -180 10 -94 17 -304 7 -430 -18 -55 -11 -124
-24 -154 -28 l-54 -7 7 29 c4 16 25 126 47 244 61 335 108 552 124 576 12 19
26 23 97 28 225 16 380 23 551 25 175 1 188 0 183 -16z m-1030 -270 c-14 -59
-51 -225 -81 -367 -30 -143 -60 -263 -66 -266 -6 -4 -61 -13 -122 -19 -62 -7
-133 -15 -158 -18 l-46 -5 18 128 c21 156 32 207 52 237 54 78 413 435 425
422 3 -2 -7 -53 -22 -112z m-1054 -753 l47 -22 -47 -23 c-134 -66 -171 -82
-175 -78 -6 5 58 120 80 145 10 11 21 14 32 9 9 -4 37 -18 63 -31z"/>
<path d="M9700 7259 c-87 -53 -299 -109 -414 -109 l-41 0 3 -67 c10 -276 23
-424 43 -489 39 -131 127 -253 255 -355 68 -54 222 -139 252 -139 23 0 149 70
217 120 62 46 125 121 161 192 64 126 68 249 23 616 -10 84 -13 92 -33 92 -67
0 -290 80 -371 134 l-50 33 -45 -28z m93 -83 c58 -34 210 -91 280 -106 31 -6
57 -17 57 -23 0 -7 7 -73 15 -147 34 -318 5 -451 -127 -582 -66 -64 -181 -138
-216 -138 -56 0 -218 105 -304 198 -129 140 -159 239 -172 569 l-5 132 47 6
c134 18 270 56 342 95 43 24 34 24 83 -4z"/>
<path d="M9713 6898 c-42 -44 -56 -83 -48 -138 l7 -45 -24 21 c-55 51 -103 58
-118 18 -26 -68 -1 -159 64 -232 20 -21 36 -46 36 -53 0 -8 7 -25 16 -38 l17
-23 33 36 c22 24 42 36 59 36 34 0 94 26 124 53 37 34 61 95 61 159 0 39 6 68
20 91 12 19 23 58 27 86 6 50 5 51 -20 51 -45 0 -140 -42 -174 -76 -25 -24
-33 -41 -33 -68 0 -48 23 -47 47 1 11 23 34 47 58 60 55 31 67 30 54 -4 -14
-39 -56 -80 -88 -88 -14 -3 -43 -17 -63 -31 -21 -13 -40 -24 -43 -24 -15 0 -2
94 21 144 40 87 22 121 -33 64z"/>
<path d="M10570 7049 c-13 -5 -39 -21 -58 -35 -32 -25 -33 -27 -15 -46 30 -34
50 -40 75 -24 55 35 147 28 203 -16 27 -21 68 -96 59 -109 -4 -6 -68 -4 -177
6 l-48 4 3 -42 3 -42 113 -3 112 -3 -6 -27 c-15 -63 -66 -102 -134 -102 -38 0
-98 24 -127 52 l-23 22 -30 -29 -30 -29 26 -27 c41 -43 115 -70 197 -72 62 -2
79 2 123 26 77 43 99 88 98 202 0 102 -19 156 -75 219 -48 56 -101 79 -189 83
-41 1 -86 -2 -100 -8z"/>
<path d="M11652 6958 c3 -7 14 -110 23 -229 l19 -216 179 -6 c99 -4 227 -7
284 -7 l103 0 0 39 c0 29 -5 40 -18 43 -15 4 -20 24 -31 129 -6 68 -15 148
-18 177 l-6 52 -43 0 c-52 0 -49 15 -29 -170 21 -197 25 -180 -44 -180 l-58 0
-19 180 -18 180 -43 0 c-51 0 -50 7 -28 -175 23 -190 27 -175 -55 -175 -38 0
-70 1 -71 3 0 1 -8 83 -17 182 l-17 180 -49 3 c-37 2 -47 0 -44 -10z"/>
<path d="M10974 6848 c3 -29 8 -113 12 -185 l7 -133 27 0 c16 0 36 -3 46 -7
16 -6 17 1 11 75 -3 45 -2 82 1 81 4 0 34 -35 67 -77 59 -75 62 -77 108 -80
57 -4 58 -6 -28 103 -30 38 -55 76 -55 83 0 12 40 77 86 140 20 28 16 32 -33
39 -35 5 -41 2 -58 -23 -10 -16 -34 -49 -54 -74 l-36 -44 -6 29 c-4 17 -7 51
-8 78 l-1 47 -46 0 -46 0 6 -52z"/>
<path d="M11342 6860 c-70 -43 -94 -146 -53 -235 45 -101 188 -149 272 -92 93
62 106 176 31 276 -50 67 -179 94 -250 51z m148 -75 c57 -30 79 -120 40 -163
-63 -67 -170 -10 -170 91 0 71 63 106 130 72z"/>
<path d="M12271 6794 c0 -27 6 -105 12 -174 l12 -125 32 -3 c31 -3 33 -1 74
87 23 50 46 91 50 91 5 0 9 -17 9 -37 0 -21 3 -62 6 -90 l7 -53 39 0 40 0 -7
78 c-12 143 -26 247 -34 255 -5 5 -19 7 -31 5 -17 -2 -34 -25 -69 -93 l-46
-90 -8 90 c-4 49 -10 91 -11 93 -2 1 -20 6 -40 9 l-36 6 1 -49z"/>
<path d="M12554 6805 c3 -11 6 -30 6 -42 0 -20 5 -23 39 -23 38 0 38 0 45 -47
3 -26 9 -85 13 -130 l6 -83 43 0 43 0 -5 48 c-3 26 -8 84 -13 130 l-7 82 43 0
c43 0 43 0 43 35 0 20 -6 38 -12 40 -7 2 -66 5 -131 7 -114 3 -118 2 -113 -17z"/>
<path d="M13691 6002 c-7 -13 -23 -53 -37 -89 -14 -36 -31 -77 -38 -92 -11
-21 -12 -85 -4 -356 5 -181 6 -366 1 -410 l-8 -80 -200 -6 c-110 -4 -258 -7
-330 -8 l-130 -1 -92 -99 -93 -98 -51 24 c-165 79 -468 64 -635 -33 -100 -57
-195 -204 -258 -396 -30 -91 -72 -264 -90 -369 l-6 -37 -63 -6 c-70 -7 -1544
-72 -2297 -101 -137 -6 -501 -23 -925 -45 -104 -5 -248 -12 -320 -16 -71 -3
-258 -19 -415 -35 -157 -16 -305 -31 -330 -33 -25 -3 -97 -8 -160 -12 -63 -4
-126 -11 -140 -15 -24 -9 -24 -9 5 -6 17 2 44 1 60 -2 29 -6 28 -7 -20 -19
-27 -7 -64 -17 -81 -22 -73 -23 -69 -35 -70 208 0 302 -37 493 -127 667 -69
132 -156 200 -298 231 -98 22 -407 30 -568 15 -230 -21 -356 -56 -469 -131
l-73 -49 -99 54 c-135 74 -280 162 -309 188 -13 12 -51 58 -84 102 -94 124
-155 193 -204 227 l-44 32 103 27 c230 60 263 81 485 306 192 196 202 223 78
223 -167 0 -994 -117 -1225 -174 -170 -42 -206 -63 -527 -312 -103 -80 -158
-110 -213 -118 -67 -10 -964 -7 -1124 3 -117 7 -141 11 -153 26 -18 26 -16 89
6 173 10 40 17 72 14 72 -11 0 -53 -109 -53 -140 0 -26 -3 -31 -12 -22 -36 36
-38 -15 -2 -57 l26 -31 -33 0 c-39 0 -32 -9 19 -27 94 -32 1100 -42 1412 -13
58 5 240 21 405 35 653 56 864 83 958 125 64 28 59 33 -10 9 -31 -10 -58 -17
-60 -15 -3 2 13 10 34 16 78 26 169 80 217 129 28 28 47 53 44 57 -4 3 -14 -6
-24 -20 -9 -15 -31 -36 -48 -48 l-31 -21 34 36 c37 40 36 47 -4 21 -16 -10
-25 -12 -25 -5 0 6 15 21 33 32 17 12 24 18 14 15 -10 -3 -24 -6 -31 -6 -7 0
-19 -12 -26 -26 -17 -31 -43 -46 -65 -38 -12 5 -13 9 -4 20 6 8 7 14 2 14 -14
0 -44 -35 -37 -43 3 -3 -4 -10 -15 -17 -12 -6 -21 -8 -21 -5 0 5 -29 -17 -55
-42 -20 -19 -27 -16 -15 7 6 11 16 17 22 14 7 -5 8 -2 4 5 -5 7 0 22 11 34 10
12 -11 -5 -47 -37 -36 -33 -67 -62 -70 -64 -6 -4 33 10 45 17 6 3 24 6 41 6
43 0 32 -22 -14 -29 -20 -3 -80 -12 -132 -20 -105 -16 -677 -66 -755 -66 -50
1 -50 1 -25 16 14 9 36 30 49 47 23 28 23 29 4 18 -41 -21 -35 -11 19 33 29
24 71 63 92 86 49 51 78 69 70 43 -5 -12 1 -10 17 8 13 14 31 28 39 32 8 3 0
6 -19 6 -167 4 397 103 1004 177 220 26 300 43 150 30 -44 -4 -109 -9 -145
-11 l-65 -4 60 9 c98 16 289 28 299 18 6 -5 3 -8 -6 -8 -9 0 -20 -5 -24 -12
-5 -8 -2 -9 9 -5 10 3 17 3 17 -2 0 -4 -78 -87 -172 -184 -147 -149 -183 -180
-238 -206 -125 -59 -294 -100 -595 -146 -486 -74 -762 -152 -867 -244 -74 -65
-225 -276 -327 -458 -83 -148 -44 -137 -461 -129 -328 6 -561 16 -734 32 -45
4 -74 12 -86 24 -20 20 -34 102 -60 360 -16 153 -20 176 -39 191 -27 22 -26
26 6 74 20 30 21 36 6 22 -11 -9 -30 -38 -43 -62 -13 -25 -27 -45 -31 -45 -4
0 -22 -20 -39 -44 -27 -41 -30 -51 -29 -123 0 -43 6 -139 13 -213 13 -152 11
-190 -11 -190 -13 0 -13 3 -3 15 10 12 10 15 -4 15 -9 0 -16 -7 -16 -16 0 -9
-21 -42 -47 -75 l-46 -59 6 -118 c9 -177 78 -402 133 -439 13 -8 60 -19 105
-24 45 -5 120 -20 168 -34 104 -29 215 -49 381 -70 68 -8 125 -15 126 -15 1 0
4 -10 8 -23 9 -38 83 -145 133 -193 51 -50 145 -114 168 -114 32 0 20 -15 -14
-17 -20 -1 -148 -14 -286 -28 -137 -15 -255 -27 -262 -28 -7 0 -14 -6 -17 -14
-3 -7 -12 -13 -21 -13 -21 0 -19 -19 3 -27 9 -4 19 -10 22 -14 7 -10 298 -55
405 -64 93 -7 186 -15 235 -20 34 -4 172 -11 355 -20 50 -2 119 -7 155 -9 63
-5 334 -18 751 -35 114 -5 375 -10 580 -11 206 -2 482 -3 614 -4 454 -2 901
21 1024 54 19 5 37 7 42 5 4 -3 48 8 99 25 51 17 107 32 125 34 19 2 58 9 87
15 29 5 95 12 147 16 51 3 96 7 100 10 4 2 27 5 52 5 24 1 76 6 114 11 150 19
704 60 717 53 4 -3 44 0 90 6 46 5 117 12 158 14 41 3 149 10 240 16 269 17
298 19 470 25 91 2 210 7 265 10 55 2 163 7 240 10 280 11 371 15 435 20 36 2
133 7 215 10 83 4 231 10 330 15 99 4 238 9 309 10 71 0 132 3 136 5 4 2 114
7 246 10 968 24 1349 37 1453 51 171 22 191 26 198 37 4 6 1 7 -8 2 -12 -8
-12 -6 0 8 15 18 26 23 16 7 -3 -5 -1 -10 4 -10 6 0 11 7 11 16 0 11 -6 15
-20 11 -32 -8 -24 11 31 70 95 105 154 260 168 443 l6 85 135 16 c74 9 189 22
255 28 106 10 122 14 141 35 17 19 35 25 90 31 192 18 232 66 271 315 15 95
18 174 17 463 -1 333 -2 350 -22 376 -26 36 -42 142 -42 284 0 125 13 182 38
172 13 -5 14 10 9 128 -4 74 -11 145 -15 158 l-9 23 -12 -22z m-1243 -1627
c68 -21 143 -93 182 -178 119 -252 -3 -579 -232 -622 -104 -20 -230 67 -294
202 -67 143 -69 295 -3 428 73 149 203 212 347 170z m-6295 -131 c87 -22 133
-49 198 -113 275 -276 150 -800 -215 -897 -113 -30 -230 -5 -331 71 -73 55
-107 98 -150 190 -76 162 -71 363 13 519 100 184 299 279 485 230z m-3758
-139 c143 -8 281 -15 308 -15 l47 0 0 -121 0 -122 -137 7 c-168 8 -413 25
-470 32 l-43 5 0 115 c0 102 2 114 18 114 9 0 134 -7 277 -15z m6921 -377 c23
-52 93 -143 139 -180 19 -16 55 -38 80 -49 25 -11 45 -21 45 -22 0 -1 -91 -3
-203 -5 -111 -1 -251 -7 -312 -12 -60 -5 -213 -12 -340 -15 -213 -5 -513 -18
-701 -30 -439 -27 -908 -45 -1167 -45 -172 0 -189 2 -183 17 12 31 56 192 56
205 0 10 37 13 168 13 133 1 210 7 382 32 411 61 632 78 1405 113 132 6 256
12 275 14 19 1 103 3 186 4 l151 2 19 -42z m1439 22 c43 -16 330 -38 595 -46
135 -4 253 -10 262 -13 9 -3 40 -50 67 -105 28 -54 43 -92 35 -85 -12 10 -76
13 -268 14 -290 0 -1072 -13 -1256 -21 l-125 -6 40 30 c64 47 111 98 147 157
38 63 31 61 213 70 66 4 122 8 124 11 9 8 141 4 166 -6z m-6265 -346 c313 -5
467 -3 493 4 21 6 44 9 51 6 7 -3 25 -34 39 -70 l25 -64 -221 0 c-122 -1 -244
-3 -272 -5 -77 -7 -537 -34 -760 -45 -110 -5 -216 -12 -235 -15 -33 -6 -32 -4
27 35 33 22 87 70 120 105 l58 65 110 -5 c61 -3 315 -8 565 -11z"/>
<path d="M12303 4340 c-67 -14 -129 -52 -116 -73 3 -5 1 -7 -4 -4 -6 4 -17 -1
-24 -10 -12 -14 -12 -16 0 -9 9 6 12 5 9 -5 -3 -8 -10 -13 -15 -12 -6 1 -16
-10 -22 -24 -11 -24 -11 -25 4 -13 9 8 33 13 53 12 20 -1 43 2 50 6 17 11 5
40 -19 47 -10 4 -19 9 -19 13 0 16 101 52 143 52 44 0 68 -12 48 -24 -11 -7 9
-56 23 -56 4 0 5 17 2 38 l-7 37 24 -40 c13 -22 30 -39 39 -39 9 1 32 -24 55
-57 39 -61 59 -76 48 -36 -5 20 -5 20 5 4 7 -10 10 -21 7 -24 -3 -2 1 -23 9
-46 15 -42 17 -134 2 -143 -4 -3 -8 3 -9 13 -1 10 -7 -8 -14 -39 -12 -58 -31
-92 -45 -83 -5 3 -20 -9 -34 -26 -26 -31 -40 -37 -84 -38 -13 -1 -21 -5 -17
-10 3 -5 1 -12 -5 -16 -5 -3 -10 0 -10 7 0 7 -11 18 -25 25 -14 6 -25 7 -25 3
0 -5 9 -12 21 -15 11 -4 19 -9 16 -11 -2 -3 -17 0 -32 6 -23 9 -26 8 -21 -5 3
-10 -1 -15 -12 -15 -9 0 -27 -3 -39 -6 -17 -5 -23 -2 -23 10 0 14 -4 15 -21 6
-11 -7 -23 -9 -26 -7 -2 3 5 8 16 12 23 7 28 30 10 41 -7 4 -28 8 -47 10 -54
4 -75 58 -27 70 47 12 19 76 -39 90 l-29 7 7 -41 c14 -90 47 -155 107 -214 67
-65 83 -75 124 -78 67 -5 95 1 123 25 17 14 37 25 45 25 23 0 106 129 122 190
33 119 16 261 -41 356 -48 81 -74 100 -148 113 -34 6 -65 11 -67 10 -2 -1 -23
-5 -46 -9z"/>
<path d="M12420 4063 c0 -3 6 -11 14 -17 8 -6 17 -22 21 -36 l8 -25 -21 25
c-18 22 -23 23 -41 12 -18 -10 -21 -10 -21 4 0 34 -19 1 -30 -52 -13 -60 -22
-61 -38 -4 l-10 35 -1 -33 c-2 -60 46 -122 94 -122 27 0 58 34 79 85 16 38 16
41 -6 82 -20 37 -48 64 -48 46z"/>
<path d="M5944 4190 c-33 -11 -78 -31 -98 -45 -21 -14 -42 -22 -48 -19 -6 4
-8 3 -5 -3 4 -5 -6 -23 -21 -39 -49 -51 -88 -108 -105 -152 -22 -54 -21 -59 3
-37 11 10 20 13 20 7 0 -6 -12 -19 -27 -30 -24 -17 -27 -27 -31 -100 -5 -93 4
-164 19 -141 7 10 8 6 3 -14 -6 -27 34 -123 74 -174 25 -33 75 -40 101 -14 23
23 41 10 20 -15 -7 -8 -8 -14 -3 -13 5 2 19 -1 32 -5 24 -8 52 7 52 28 0 7 -7
21 -16 32 -8 10 -12 13 -9 6 6 -11 3 -11 -16 0 -13 7 -26 16 -29 19 -3 3 -29
9 -59 13 -44 6 -55 4 -67 -11 -11 -13 -14 -14 -12 -3 2 8 -10 32 -26 53 -33
43 -31 52 8 37 58 -22 82 28 51 104 -13 31 -20 36 -48 36 l-32 -1 30 -14 30
-13 -32 -1 c-17 -1 -35 -5 -38 -11 -3 -5 -9 -10 -13 -10 -10 0 -15 124 -7 161
7 30 25 41 25 14 0 -9 11 -21 25 -27 22 -10 30 -8 53 9 15 11 28 30 30 41 4
28 -42 72 -75 72 l-24 0 22 33 c31 42 45 57 58 57 6 0 11 5 11 11 0 6 7 3 16
-5 17 -18 90 -21 114 -6 13 8 10 15 -17 40 -18 16 -37 30 -43 30 -7 0 -10 5
-8 11 2 6 6 9 9 7 3 -2 14 4 24 12 15 12 17 12 10 1 -6 -11 -3 -13 13 -9 12 4
24 3 27 -1 2 -4 18 -6 34 -3 17 2 28 8 25 13 -3 5 -2 9 3 9 4 0 15 -15 24 -33
13 -27 22 -32 57 -35 26 -2 42 1 42 8 0 6 -4 8 -10 5 -5 -3 -10 1 -10 10 0 9
5 13 10 10 17 -10 11 11 -8 28 -9 9 -40 17 -67 20 l-50 3 50 2 c41 2 55 -3 77
-23 15 -13 45 -27 67 -31 38 -6 41 -9 41 -39 0 -18 8 -39 18 -48 24 -22 31
-21 25 2 -6 25 13 36 23 13 4 -9 8 -19 8 -22 4 -18 52 -70 65 -70 12 0 13 -3
4 -8 -9 -6 -8 -15 6 -36 10 -15 21 -27 25 -26 32 8 49 -98 21 -127 -8 -8 -15
-28 -15 -44 0 -32 16 -40 23 -11 4 14 5 14 6 -3 0 -11 -6 -29 -14 -39 -14 -18
-15 -18 -15 -2 0 9 -7 24 -15 32 -8 9 -15 11 -15 6 0 -6 -3 -19 -6 -29 -5 -15
-4 -16 6 -3 9 12 11 6 7 -27 -3 -24 -1 -45 4 -48 4 -3 5 -13 2 -21 -4 -12 -10
-7 -20 17 -14 32 -16 33 -23 13 -5 -12 -20 -30 -34 -42 -14 -11 -26 -28 -26
-38 0 -16 -2 -17 -10 -4 -8 13 -10 12 -10 -2 0 -12 -8 -18 -22 -18 -21 0 -20
1 8 31 l29 31 -49 -31 c-28 -17 -59 -31 -70 -31 -12 0 -28 -5 -36 -10 -11 -7
-4 -9 23 -5 23 2 35 0 32 -5 -8 -13 -72 -13 -80 0 -3 6 -14 10 -23 10 -9 0
-42 11 -72 25 -32 15 -47 18 -35 9 11 -9 38 -25 60 -35 28 -13 34 -19 20 -20
-11 0 -28 -2 -37 -4 -10 -2 -21 1 -24 7 -4 5 -14 -7 -24 -29 -25 -56 -39 -64
-85 -52 -21 6 -50 18 -63 27 -24 16 -25 16 -13 -6 6 -12 16 -22 22 -22 5 0 23
-10 39 -21 15 -12 39 -23 52 -24 13 -2 44 -11 69 -21 44 -16 52 -17 127 -2 56
11 94 26 129 49 61 42 140 130 160 178 8 20 24 55 34 78 25 55 36 197 20 260
-38 151 -44 166 -100 225 -65 71 -108 95 -208 114 -94 18 -104 17 -179 -6z"/>
<path d="M6007 3934 c-16 -9 -27 -18 -24 -21 3 -2 14 0 25 6 13 7 29 7 48 1
16 -6 48 -15 71 -20 24 -6 42 -14 40 -18 -1 -4 8 -23 20 -42 56 -92 25 -205
-72 -258 -16 -9 -17 -11 -3 -12 46 -1 122 106 120 170 l0 35 8 -35 c5 -22 5
-39 -2 -47 -8 -10 -6 -13 5 -13 18 0 23 12 26 67 2 48 -20 107 -52 141 -53 58
-150 78 -210 46z"/>
<path d="M6060 3807 c-45 -21 -61 -67 -24 -67 8 0 14 -5 14 -10 0 -7 -6 -7
-20 0 -18 10 -20 8 -20 -20 0 -45 -15 -36 -18 11 -2 26 4 51 14 68 17 26 17
26 -3 8 -12 -10 -26 -38 -32 -62 -9 -37 -8 -48 7 -74 9 -17 23 -31 30 -31 8 0
10 5 6 13 -5 8 -2 7 10 -2 11 -10 13 -16 6 -21 -6 -4 8 -7 32 -6 48 1 82 31
97 84 10 33 -9 87 -37 108 -21 16 -29 16 -62 1z"/>
<path d="M8131 5908 c-61 -33 -81 -93 -81 -248 0 -156 26 -246 77 -269 35 -16
105 -13 131 4 62 44 80 352 27 455 -28 55 -105 84 -154 58z"/>
<path d="M5005 5630 c-21 -4 -41 -13 -43 -19 -2 -6 -12 -11 -23 -11 -21 0 -54
-44 -45 -59 3 -5 2 -21 -4 -35 -9 -24 -8 -26 8 -17 10 5 50 11 88 12 92 3 122
30 81 76 -18 21 -18 21 2 28 12 3 21 11 21 18 0 8 3 8 12 -1 7 -7 21 -12 33
-12 15 1 11 5 -14 15 -36 16 -54 17 -116 5z"/>
<path d="M4545 5568 c-33 -5 -96 -16 -140 -24 -44 -8 -106 -17 -138 -20 -103
-10 -118 -22 -24 -19 49 2 91 6 94 9 11 10 23 6 21 -6 -2 -9 13 -14 47 -15 92
-3 149 -3 154 2 2 3 -17 5 -42 5 -27 0 -47 5 -47 11 0 5 -6 7 -12 3 -9 -5 -9
-2 1 9 16 20 22 22 19 5 -2 -7 16 -10 57 -9 43 1 56 -1 45 -9 -9 -6 -10 -10
-3 -10 17 0 25 17 12 26 -8 4 -7 9 2 15 11 7 9 9 -6 10 -12 1 -4 6 20 14 46
16 25 16 -60 3z"/>
<path d="M4426 5448 c3 -51 -65 -141 -80 -105 -3 9 -5 9 -5 0 -1 -7 -9 -13
-18 -13 -10 0 -25 -5 -33 -11 -11 -8 -2 -9 34 -4 27 4 56 9 65 12 14 4 14 3 1
-6 -28 -19 -144 -35 -168 -22 -18 10 -23 9 -28 -3 -4 -11 -11 -13 -23 -6 -13
6 -18 5 -18 -6 0 -16 16 -17 107 -4 36 5 100 13 143 19 91 12 158 33 199 62
28 20 28 22 13 45 -9 14 -13 30 -9 36 4 7 3 8 -5 4 -6 -4 -20 -4 -32 -1 -15 5
-17 10 -9 19 8 10 4 12 -16 8 -16 -3 -21 -7 -14 -12 7 -5 2 -9 -15 -12 -20 -4
-25 -2 -20 9 3 11 1 13 -10 10 -8 -4 -17 -2 -20 3 -4 6 -14 10 -24 10 -14 0
-17 -7 -15 -32z"/>
<path d="M6365 5170 c17 -81 26 -198 22 -290 -3 -58 -2 -89 2 -70 6 34 7 35
51 32 243 -17 382 -102 473 -287 78 -158 122 -345 140 -587 l12 -163 60 0 c33
0 114 3 180 7 66 4 253 15 415 23 344 19 342 18 407 115 25 36 32 49 16 30
-66 -83 -97 -107 -143 -113 -25 -4 -175 -14 -335 -22 -159 -8 -355 -20 -434
-25 -79 -6 -146 -8 -148 -6 -3 2 -8 64 -14 138 -11 164 -23 246 -55 365 -99
374 -227 498 -555 538 l-56 7 -6 126 c-4 79 -12 142 -22 167 -8 22 -13 29 -10
15z"/>
<path d="M1926 4972 c-3 -6 3 -12 14 -15 18 -5 20 -14 20 -84 0 -79 24 -337
36 -390 17 -78 17 -78 169 -87 61 -4 184 -11 275 -16 252 -15 675 -13 688 3 6
7 69 114 139 237 71 124 138 239 149 257 37 63 39 62 -426 68 -442 6 -1014 23
-1042 31 -9 3 -19 1 -22 -4z"/>
<path d="M11075 4554 c-33 -2 -206 -8 -385 -14 -179 -6 -455 -15 -615 -20
-159 -6 -497 -17 -750 -25 -253 -8 -563 -18 -690 -22 -126 -4 -251 -8 -277 -8
-27 0 -48 -2 -48 -5 0 -3 -114 -7 -253 -8 -138 -2 -328 -7 -422 -10 l-170 -7
-3 -31 c-4 -39 65 -352 84 -381 8 -13 24 -23 37 -23 12 0 119 4 237 10 118 5
271 12 340 15 69 3 161 7 205 10 44 3 141 7 215 10 74 3 162 8 195 10 56 5
866 41 1435 65 730 30 1074 50 1094 64 53 36 85 80 119 168 39 100 61 184 52
199 -6 8 -240 10 -400 3z"/>
</g>
</svg>
