<?xml version="1.0" standalone="no"?>
<!DOCTYPE svg PUBLIC "-//W3C//DTD SVG 20010904//EN"
 "http://www.w3.org/TR/2001/REC-SVG-20010904/DTD/svg10.dtd">
<svg version="1.0" xmlns="http://www.w3.org/2000/svg"
 width="1536.000000pt" height="1024.000000pt" viewBox="0 0 1536.000000 1024.000000"
 preserveAspectRatio="xMidYMid meet">
<metadata>
Created by potrace 1.16, written by Peter Selinger 2001-2019
</metadata>
<g transform="translate(0.000000,1024.000000) scale(0.100000,-0.100000)"
fill="#000000" stroke="none">
<path d="M4115 6708 c-260 -133 -570 -223 -904 -262 -79 -9 -127 -19 -132 -28
-13 -19 -11 -931 2 -1025 51 -369 279 -692 674 -953 126 -83 436 -240 475
-240 61 0 447 221 603 345 268 213 428 452 500 745 19 79 21 121 24 613 2 290
2 527 0 527 -29 0 -336 46 -412 61 -181 38 -391 110 -599 208 -60 28 -118 51
-130 51 -12 -1 -57 -19 -101 -42z m437 -253 c213 -73 405 -118 601 -141 l57
-6 0 -433 c0 -466 -4 -515 -55 -665 -106 -312 -383 -584 -819 -803 l-109 -55
-53 24 c-266 117 -455 245 -630 425 -110 115 -165 189 -223 306 -91 183 -99
247 -100 769 l-1 432 72 7 c90 8 323 50 398 71 163 46 333 110 458 173 l77 39
97 -49 c54 -27 157 -69 230 -94z"/>
<path d="M4190 5973 c-94 -84 -161 -217 -185 -365 -3 -21 -8 -38 -9 -38 -2 0
-27 15 -55 34 -56 38 -149 76 -186 76 -35 0 -52 -23 -65 -87 -27 -127 4 -285
74 -376 30 -39 101 -100 126 -109 7 -2 -4 -35 -29 -88 -23 -46 -41 -89 -41
-95 0 -16 60 -105 70 -105 5 0 35 53 68 117 l60 116 138 2 c128 1 144 3 209
29 92 38 164 92 205 156 55 85 75 215 48 315 l-12 45 56 58 c82 83 138 211
138 314 l0 38 -57 0 c-120 0 -235 -43 -346 -127 -33 -24 -61 -42 -64 -39 -3 3
-16 35 -29 72 -13 38 -32 76 -42 86 -18 19 -20 18 -72 -29z m419 -135 c-25
-46 -93 -118 -167 -175 -41 -32 -123 -97 -183 -145 -59 -49 -115 -88 -124 -88
-38 0 3 251 55 334 18 28 18 29 29 8 6 -12 21 -51 32 -87 11 -36 23 -65 27
-65 5 0 24 16 43 36 76 80 282 225 297 210 2 -3 -2 -15 -9 -28z m-659 -399
c20 -21 47 -57 60 -81 l22 -43 -23 -37 c-13 -20 -27 -37 -32 -38 -17 -1 -101
88 -122 130 -24 47 -45 136 -37 158 5 15 80 -36 132 -89z m530 28 c0 -143
-125 -250 -307 -264 -40 -3 -73 -3 -73 1 0 29 331 310 373 315 4 1 7 -23 7
-52z"/>
<path d="M6456 6334 c-38 -9 -94 -28 -125 -44 -58 -29 -154 -107 -149 -120 2
-4 36 -35 76 -70 l72 -62 37 32 c68 60 115 75 238 75 102 0 114 -2 156 -27 55
-33 105 -87 130 -142 36 -80 48 -76 -211 -76 l-230 0 0 -85 0 -85 231 0 232 0
-7 -32 c-29 -148 -203 -235 -396 -198 -69 13 -152 51 -186 85 l-27 27 -69 -69
-69 -68 43 -38 c164 -143 454 -179 664 -80 85 39 194 151 223 229 83 221 40
464 -109 615 -124 126 -323 176 -524 133z"/>
<path d="M8860 5825 l0 -505 645 0 645 0 0 -105 0 -105 105 0 105 0 0 200 0
200 -35 0 -35 0 0 410 0 410 -105 0 -105 0 0 -410 0 -410 -200 0 -200 0 0 410
0 410 -110 0 -110 0 0 -410 0 -410 -190 0 -190 0 0 410 0 410 -110 0 -110 0 0
-505z"/>
<path d="M8173 6035 c-57 -17 -135 -68 -174 -113 -18 -20 -45 -64 -62 -99 -25
-54 -29 -75 -29 -141 1 -104 28 -175 94 -247 213 -233 625 -147 704 147 19 73
17 125 -6 201 -36 117 -125 205 -248 246 -72 25 -212 28 -279 6z m235 -191
c111 -55 142 -193 65 -285 -89 -105 -284 -85 -343 37 -48 99 -8 207 95 255 57
27 121 24 183 -7z"/>
<path d="M7240 5681 l0 -361 105 0 105 0 0 145 c0 145 0 145 23 145 18 0 45
-31 127 -145 l105 -144 113 -1 c61 0 112 2 112 5 0 3 -56 80 -123 173 -68 92
-130 177 -137 188 -12 20 -3 34 108 181 67 88 122 162 122 164 0 2 -48 4 -107
3 l-108 -1 -105 -139 c-58 -76 -111 -140 -117 -142 -10 -3 -13 29 -13 137 l0
141 -74 0 c-40 0 -88 3 -105 6 l-31 7 0 -362z"/>
<path d="M10460 5678 l0 -358 78 0 79 0 146 188 c81 103 154 196 162 207 13
18 14 -2 15 -187 l0 -208 95 0 95 0 0 358 0 359 -81 -3 c-61 -1 -84 -5 -90
-17 -5 -8 -75 -99 -156 -202 l-148 -187 -3 203 -2 204 -95 0 -95 0 0 -357z"/>
<path d="M11200 5948 l0 -88 104 0 104 0 7 -62 c3 -35 5 -156 3 -271 l-3 -207
108 0 107 0 0 270 0 270 100 0 100 0 0 88 0 87 -315 1 -315 0 0 -88z"/>
<path d="M6170 4769 c0 -28 5 -59 11 -71 12 -22 70 -50 91 -44 7 3 25 7 41 10
27 6 27 6 27 -49 0 -42 3 -55 15 -55 13 0 15 21 15 130 0 109 -2 130 -15 130
-11 0 -15 -13 -15 -54 0 -60 -10 -74 -63 -83 -51 -8 -77 21 -77 87 0 38 -4 50
-15 50 -11 0 -15 -12 -15 -51z"/>
<path d="M7880 4690 l0 -130 70 0 c62 0 74 3 95 25 59 58 15 125 -81 125 l-54
0 0 40 0 40 75 0 c60 0 75 3 75 15 0 12 -17 15 -90 15 l-90 0 0 -130z"/>
<path d="M10693 4810 c-12 -5 -29 -20 -38 -33 -65 -100 -15 -217 93 -217 46 0
112 29 112 49 0 19 -29 19 -46 0 -27 -30 -94 -26 -128 7 -36 37 -37 109 -1
148 31 33 90 36 129 5 41 -32 56 -9 16 25 -33 27 -91 34 -137 16z"/>
<path d="M6440 4655 c0 -73 3 -95 13 -95 8 0 36 32 63 71 l49 72 3 -72 c2 -54
6 -71 17 -71 12 0 15 18 15 95 0 84 -2 95 -17 95 -11 0 -36 -28 -63 -68 l-45
-67 -3 68 c-2 51 -6 67 -17 67 -12 0 -15 -19 -15 -95z"/>
<path d="M7068 4735 c-38 -21 -53 -73 -34 -118 17 -42 41 -57 90 -57 49 0 86
34 93 87 5 37 2 45 -25 73 -34 34 -78 39 -124 15z"/>
<path d="M7458 4739 c-32 -18 -19 -29 28 -22 39 5 49 3 60 -12 21 -29 17 -35
-21 -35 -47 0 -95 -25 -95 -49 0 -56 43 -81 93 -56 20 10 33 12 35 5 2 -5 10
-10 18 -10 11 0 14 16 14 69 0 87 -22 121 -78 121 -20 0 -45 -5 -54 -11z"/>
<path d="M8145 4726 c-33 -33 -39 -66 -21 -110 21 -51 71 -72 121 -52 19 8 35
22 35 30 0 18 -16 21 -25 6 -9 -14 -78 -13 -93 2 -28 28 -13 38 58 38 l70 0 0
30 c0 71 -94 107 -145 56z"/>
<path d="M8570 4737 c-13 -7 -30 -28 -38 -48 -28 -74 37 -149 112 -128 49 14
71 43 71 95 0 38 -5 50 -28 70 -31 27 -77 31 -117 11z"/>
<path d="M9005 4737 c-10 -8 -15 -19 -11 -26 6 -9 11 -9 21 -1 16 13 67 16 84
6 6 -4 11 -16 11 -27 0 -15 -7 -19 -35 -19 -69 0 -108 -36 -85 -80 17 -32 57
-43 91 -26 16 8 29 10 29 5 0 -5 7 -9 15 -9 12 0 15 15 15 79 0 71 -2 82 -22
95 -28 20 -88 21 -113 3z"/>
<path d="M9670 4737 c-34 -17 -55 -81 -39 -118 15 -37 53 -61 97 -61 28 0 43
7 64 31 76 85 -19 200 -122 148z"/>
<path d="M10240 4655 l0 -95 53 0 c65 0 97 20 97 60 0 37 -32 60 -82 60 -37 0
-38 1 -38 35 0 24 -5 35 -15 35 -12 0 -15 -17 -15 -95z"/>
<path d="M11157 4739 c-28 -17 -49 -68 -43 -104 18 -93 145 -107 182 -19 18
44 12 77 -21 110 -26 26 -84 32 -118 13z"/>
<path d="M11579 4721 c-38 -38 -39 -87 -4 -129 62 -74 165 -30 165 72 0 26 -7
40 -31 60 -43 36 -91 35 -130 -3z"/>
<path d="M11791 4655 c0 -119 10 -121 81 -23 l53 73 3 -73 c2 -55 6 -72 17
-72 12 0 15 18 15 95 0 84 -2 95 -17 95 -11 0 -37 -28 -63 -65 -25 -35 -48
-64 -52 -65 -5 0 -8 29 -8 65 0 50 -3 65 -15 65 -12 0 -14 -18 -14 -95z"/>
<path d="M12380 4655 l0 -95 60 0 c47 0 64 4 80 20 23 23 25 44 7 62 -10 9
-11 19 -3 40 8 22 7 31 -9 47 -14 17 -30 21 -77 21 l-58 0 0 -95z"/>
<path d="M12590 4654 c0 -117 7 -118 79 -19 l51 70 0 -73 c0 -57 3 -72 15 -72
12 0 15 17 15 96 0 85 -2 95 -17 92 -10 -2 -38 -32 -63 -68 l-45 -65 -3 68
c-2 51 -6 67 -17 67 -12 0 -15 -19 -15 -96z"/>
<path d="M12847 4739 c-9 -5 -24 -24 -33 -41 -29 -56 3 -126 65 -141 24 -6 86
16 97 35 12 19 -7 21 -38 4 -38 -21 -80 -11 -98 24 -10 19 -8 20 66 20 l77 0
-6 38 c-4 20 -16 45 -28 55 -23 19 -74 22 -102 6z" fill="white"/>
</g>
</svg>
