<?xml version="1.0" standalone="no"?>
<!DOCTYPE svg PUBLIC "-//W3C//DTD SVG 20010904//EN"
 "http://www.w3.org/TR/2001/REC-SVG-20010904/DTD/svg10.dtd">
<svg version="1.0" xmlns="http://www.w3.org/2000/svg"
 width="160.000000pt" height="160.000000pt" viewBox="0 0 160.000000 160.000000"
 preserveAspectRatio="xMidYMid meet">
<metadata>
Created by potrace 1.16, written by Peter Selinger 2001-2019
</metadata>
<g transform="translate(0.000000,160.000000) scale(0.100000,-0.100000)"
fill="#000000" stroke="none">
<path d="M735 1407 c-112 -74 -270 -128 -414 -143 -40 -4 -76 -13 -82 -20 -8
-10 -10 -85 -7 -267 5 -244 6 -255 33 -336 52 -152 154 -279 301 -374 90 -58
208 -117 234 -117 26 0 144 59 234 117 147 95 249 222 301 374 27 81 28 92 33
336 3 182 1 257 -7 267 -6 7 -42 16 -82 20 -144 15 -302 69 -414 143 -27 18
-57 33 -65 33 -8 0 -38 -15 -65 -33z m101 -42 c88 -67 281 -137 417 -152 l57
-6 0 -227 c0 -209 -2 -234 -23 -308 -31 -107 -77 -179 -169 -267 -85 -82 -127
-111 -240 -167 l-78 -38 -77 38 c-114 56 -156 85 -241 167 -92 88 -138 160
-169 267 -21 74 -23 99 -23 308 l0 227 58 6 c135 15 323 83 410 149 21 15 39
28 41 28 2 0 19 -11 37 -25z"/>
<path d="M995 1050 c-78 -11 -155 -37 -212 -70 -73 -42 -173 -138 -229 -220
-39 -58 -45 -72 -34 -85 19 -23 26 -19 70 43 58 82 150 172 214 211 51 30 188
75 209 68 5 -1 -31 -27 -79 -56 -202 -123 -336 -232 -425 -347 -39 -50 -41
-56 -26 -71 14 -15 26 -6 134 104 84 86 148 141 223 190 150 99 230 146 237
139 13 -12 -29 -129 -67 -190 -39 -62 -89 -109 -145 -138 -47 -24 -144 -41
-201 -34 -56 6 -80 -7 -68 -39 6 -15 19 -17 113 -13 93 4 114 8 171 36 124 59
211 175 246 327 9 39 20 83 25 99 6 19 5 34 -2 43 -12 14 -71 15 -154 3z"/>
</g>
</svg>
