<?xml version="1.0" standalone="no"?>
<!DOCTYPE svg PUBLIC "-//W3C//DTD SVG 20010904//EN"
 "http://www.w3.org/TR/2001/REC-SVG-20010904/DTD/svg10.dtd">
<svg version="1.0" xmlns="http://www.w3.org/2000/svg"
 width="160.000000pt" height="160.000000pt" viewBox="0 0 160.000000 160.000000"
 preserveAspectRatio="xMidYMid meet">
<metadata>
Created by potrace 1.16, written by Peter Selinger 2001-2019
</metadata>
<g transform="translate(0.000000,160.000000) scale(0.100000,-0.100000)"
fill="#000000" stroke="none">
<path d="M1175 1293 c-88 -46 -125 -73 -120 -85 4 -10 -48 -12 -249 -10 -229
2 -256 1 -271 -14 -16 -17 -16 -18 1 -31 11 -8 45 -13 86 -13 l68 0 0 -60 0
-60 -40 0 c-61 0 -62 -15 -18 -154 l38 -121 0 -217 c0 -184 2 -219 16 -232 12
-13 40 -16 140 -16 69 0 134 5 145 10 18 10 19 24 19 233 0 229 3 246 55 395
3 9 28 1 85 -28 90 -45 120 -50 120 -20 0 15 -21 30 -87 63 -49 23 -90 45 -91
50 -10 22 -37 37 -68 37 l-34 0 0 60 0 60 34 0 c43 0 66 9 66 25 0 7 23 25 52
40 29 15 69 38 90 51 33 21 37 27 28 44 -6 11 -12 20 -13 20 -1 0 -25 -12 -52
-27z m-265 -218 l0 -55 -80 0 -80 0 0 55 0 55 80 0 80 0 0 -55z m90 -123 c0
-4 -16 -55 -35 -112 l-35 -104 0 -198 0 -198 -100 0 -100 0 0 198 0 198 -35
104 c-19 57 -35 108 -35 112 0 4 77 8 170 8 94 0 170 -4 170 -8z"/>
</g>
</svg>
