<?xml version="1.0" standalone="no"?>
<!DOCTYPE svg PUBLIC "-//W3C//DTD SVG 20010904//EN"
 "http://www.w3.org/TR/2001/REC-SVG-20010904/DTD/svg10.dtd">
<svg version="1.0" xmlns="http://www.w3.org/2000/svg"
 width="160.000000pt" height="160.000000pt" viewBox="0 0 160.000000 160.000000"
 preserveAspectRatio="xMidYMid meet">
<metadata>
Created by potrace 1.16, written by Peter Selinger 2001-2019
</metadata>
<g transform="translate(0.000000,160.000000) scale(0.100000,-0.100000)"
fill="#000000" stroke="none">
<path d="M386 1297 c-107 -58 -159 -173 -137 -305 33 -194 122 -361 273 -512
146 -146 317 -237 506 -270 141 -25 256 31 319 154 l25 49 -54 54 c-29 31 -80
78 -112 105 l-59 50 -59 -59 -58 -58 -48 25 c-60 31 -250 221 -282 282 l-25
48 60 60 59 60 -29 32 c-52 59 -310 318 -315 318 -3 0 -32 -15 -64 -33z m199
-173 l138 -145 -58 -59 -58 -59 49 -78 c62 -100 197 -235 297 -297 l78 -49 60
59 59 58 75 -74 c41 -41 75 -81 75 -90 0 -26 -61 -92 -104 -111 -106 -48 -326
5 -496 121 -77 52 -209 185 -262 264 -117 171 -168 392 -115 496 19 39 95 110
116 110 5 0 70 -66 146 -146z"/>
</g>
</svg>
