<?xml version="1.0" standalone="no"?>
<!DOCTYPE svg PUBLIC "-//W3C//DTD SVG 20010904//EN"
 "http://www.w3.org/TR/2001/REC-SVG-20010904/DTD/svg10.dtd">
<svg version="1.0" xmlns="http://www.w3.org/2000/svg"
 width="160.000000pt" height="160.000000pt" viewBox="0 0 160.000000 160.000000"
 preserveAspectRatio="xMidYMid meet">
<metadata>
Created by potrace 1.16, written by Peter Selinger 2001-2019
</metadata>
<g transform="translate(0.000000,160.000000) scale(0.100000,-0.100000)"
fill="#000000" stroke="none">
<path d="M745 1297 c-92 -61 -231 -108 -362 -123 -35 -3 -68 -13 -74 -20 -15
-18 -6 -441 10 -499 55 -193 189 -339 419 -454 l62 -31 63 31 c229 115 363
261 418 454 16 58 25 481 10 499 -6 7 -39 17 -74 20 -131 15 -270 62 -362 123
-27 18 -52 33 -55 33 -3 0 -28 -15 -55 -33z m94 -54 c76 -53 229 -106 342
-119 l59 -7 0 -191 c0 -135 -5 -210 -15 -255 -40 -167 -167 -311 -362 -410
l-63 -31 -62 31 c-196 99 -323 243 -363 410 -10 45 -15 120 -15 255 l0 191 59
7 c113 13 266 66 342 119 13 10 30 17 39 17 9 0 26 -7 39 -17z"/>
<path d="M900 849 c-74 -83 -141 -158 -148 -167 -11 -14 -21 -8 -86 57 -74 74
-107 87 -114 47 -5 -22 163 -196 188 -196 9 0 59 48 111 107 52 59 124 141
162 182 69 78 82 113 42 119 -15 2 -54 -35 -155 -149z"/>
</g>
</svg>
